# xmcd
#
# Track frame offsets:
#	150
#	14803
#	24391
#	37685
#	55549
#	73636
#	89215
#	106988
#	125249
#	141803
#	158880
#	168650
#	179715
#	190153
#	202270
#	237716
#
# Disc length: 3351 seconds
#
# Revision: 0
# Processed by: cddbd v1.5.1PL2 Copyright (c) Steve Scherf et al.
# Submitted via: dBpowerAMP V4.0
#
DISCID=f20d1510
DTITLE=Ramiro y la Muchedumbre - La Quinta Guerra Mundial
DYEAR=2005
DGENRE=Cantautor
TTITLE0=01 Ramón el Faraón
TTITLE1=02 Alopecia
TTITLE2=03 Austracismo Criminal
TTITLE3=04 Gabriel
TTITLE4=05 Mira mi Barriga, Nena
TTITLE5=06 Pon una Gorda en tu Vida
TTITLE6=07 La Hoja de Papel
TTITLE7=08 Guapo eras Cuando te Parieron, Ya No
TTITLE8=09 Mis Problemas
TTITLE9=10 Coward
TTITLE10=11 Supermaño
TTITLE11=12 Manolo Cabezabolo
TTITLE12=13 Universidad
TTITLE13=14 Ponzano and Gordi
TTITLE14=15 Lepra
TTITLE15=DATA
EXTD=
EXTT0=
EXTT1=
EXTT2=
EXTT3=
EXTT4=
EXTT5=
EXTT6=
EXTT7=
EXTT8=
EXTT9=
EXTT10=
EXTT11=
EXTT12=
EXTT13=
EXTT14=
EXTT15=
PLAYORDER=
